<svg xmlns="http://www.w3.org/2000/svg" version="1.1" viewBox="0 0 420 420 " ><polyline points="20.5,32.0,15.5,36.0,14.0,36.5,7.0,42.5,3.5,46.5,2.0,47.5,5.5,43.5,9.5,39.0,13.5,36.5,17.5,32.5,21.5,31.0,25.5,30.0,29.0,29.0,33.0,27.5,37.0,26.5,41.0,25.5,45.0,24.5,49.5,23.0,53.5,22.0,57.5,20.5,62.0,18.5,66.0,18.0,70.0,16.5,74.5,15.0,78.5,14.0,82.5,12.5,86.5,11.0,90.5,9.0,94.5,7.5,98.5,6.5,102.5,5.5,106.5,4.0,111.0,3.5,115.0,3.0,119.0,1.5" stroke="black" stroke-width="2" fill="none" />
<polyline points="88.0,37.5,80.5,41.5" stroke="black" stroke-width="2" fill="none" />
<polyline points="73.5,69.0,70.5,66.0,66.0,67.0,61.5,66.5,57.5,66.0,53.5,65.5" stroke="black" stroke-width="2" fill="none" />
<polyline points="67.5,87.0,63.5,86.0,59.5,84.5,56.0,84.0,52.5,83.5,49.0,82.5,45.0,82.5,41.0,82.0,37.0,81.5,33.0,80.5,29.0,80.5" stroke="black" stroke-width="2" fill="none" />
<polyline points="28.0,83.5,32.0,85.0,36.0,86.5,39.5,87.5" stroke="black" stroke-width="2" fill="none" />
<polyline points="72.0,101.0,76.0,103.0,80.5,104.5,85.0,106.0,89.5,102.0,94.0,99.0,98.0,96.5,102.5,94.5,106.5,93.0" stroke="black" stroke-width="2" fill="none" />
<polyline points="99.0,94.0,93.0,98.0,88.0,101.5" stroke="black" stroke-width="2" fill="none" />
<polyline points="82.0,110.0,84.0,106.5,77.0,103.0" stroke="black" stroke-width="2" fill="none" />
<polyline points="84.0,125.0,80.0,126.5" stroke="black" stroke-width="2" fill="none" />
<polyline points="80.5,127.0,85.0,128.5" stroke="black" stroke-width="2" fill="none" />
<polyline points="86.5,129.0,82.5,128.5" stroke="black" stroke-width="2" fill="none" />
<polyline points="117.5,74.5,121.5,76.0,125.5,76.5,129.5,76.5,133.0,78.0,136.5,78.5,140.5,79.0,145.0,79.5,149.0,80.5,153.0,80.5,156.5,81.0,161.0,81.5,165.5,82.5,170.0,83.5,174.5,84.5,178.5,85.5,183.0,86.0" stroke="black" stroke-width="2" fill="none" />
<polyline points="222.0,81.0,226.5,80.5,230.5,80.5,234.5,79.5,239.0,78.5,243.0,78.5,247.5,78.0,252.0,77.0,256.5,76.5,261.0,76.5,264.5,76.5,268.5,75.5,272.5,74.5,276.0,73.5,279.5,73.5,284.0,72.0,287.5,72.0,291.0,71.5,295.0,71.5,301.5,70.5,305.5,69.5,309.5,70.0,313.5,69.5,318.0,68.5,321.5,67.5,325.5,67.0,329.5,66.5,333.5,66.0,337.5,65.5,341.5,65.0,345.0,64.5,349.5,63.5,353.5,64.0,358.0,63.5,361.5,63.5,366.0,62.5,370.0,62.0,374.0,62.0,378.0,61.0,380.5,61.0,385.0,60.5,389.0,59.5,393.0,59.0,396.5,58.5,400.5,58.0,404.0,58.5,407.5,58.0,411.5,58.0,415.0,57.5,418.5,57.5" stroke="black" stroke-width="2" fill="none" />
<polyline points="362.5,83.5,358.5,79.0,354.5,78.5,351.0,78.5,347.0,77.5,343.5,78.0,339.5,77.5,335.5,77.5,331.5,78.0,327.0,77.5,323.0,80.0" stroke="black" stroke-width="2" fill="none" />
<polyline points="326.5,77.0,322.5,81.5,321.5,86.0,321.5,90.0,322.0,95.5,326.0,95.5,324.0,98.0" stroke="black" stroke-width="2" fill="none" />
<polyline points="325.5,96.0,327.0,92.0,327.0,88.0,328.5,83.5,330.5,82.0,326.5,86.5" stroke="black" stroke-width="2" fill="none" />
<polyline points="358.0,77.5,362.5,81.5" stroke="black" stroke-width="2" fill="none" />
<polyline points="411.5,170.5,415.5,169.5,419.5,171.0" stroke="black" stroke-width="2" fill="none" />
<polyline points="334.5,186.0,334.0,189.5,334.5,193.5,334.0,197.5,334.5,201.5,334.5,205.5,334.5,209.5,334.0,213.0,333.0,216.5" stroke="black" stroke-width="2" fill="none" />
<polyline points="326.0,222.5,327.0,228.0" stroke="black" stroke-width="2" fill="none" />
<polyline points="327.0,235.0,327.0,231.0,325.0,226.5,324.0,222.5,321.5,218.5" stroke="black" stroke-width="2" fill="none" />
<polyline points="331.5,216.0,331.5,212.0,331.5,207.5,331.0,203.5,330.5,199.0,330.5,194.5,331.0,190.5,330.0,187.0,328.0,185.5,323.5,187.5" stroke="black" stroke-width="2" fill="none" />
<polyline points="292.5,205.0,292.0,209.0,291.0,213.0,290.0,217.0,291.0,221.0,292.5,224.5,295.0,228.5,300.0,231.0,303.5,235.0,306.5,239.5,310.0,243.5,312.5,247.5,314.5,251.5" stroke="black" stroke-width="2" fill="none" />
<polyline points="312.5,244.5,308.5,239.0,304.5,234.0,300.5,229.5,296.5,228.0,292.5,222.0" stroke="black" stroke-width="2" fill="none" />
<polyline points="334.5,233.5,333.5,237.5,334.0,241.5,333.5,245.5,334.0,249.5,334.5,253.0,334.0,256.5,334.5,260.5,334.5,264.0,334.5,268.0,334.5,272.0,334.5,276.0,334.5,280.0,335.0,284.0,334.5,288.5,334.5,293.0,335.0,297.5,335.5,301.5,336.0,305.5,336.5,309.5,336.5,313.5,337.0,318.0,336.5,321.5,336.5,325.5,336.5,329.5,337.5,333.0,337.5,337.5,338.5,341.5,338.5,345.5,339.0,349.0,338.5,353.0,339.0,357.0,339.0,361.0,339.0,365.5,339.0,369.5,338.5,373.5,339.0,377.5,339.5,381.5,339.0,385.5,339.0,389.5,339.5,393.5,339.0,397.5,339.0,401.5,339.0,405.5,339.0,409.5,339.0,413.0,339.5,417.0,339.5,421.0" stroke="black" stroke-width="2" fill="none" />
<polyline points="337.5,421.0,336.0,416.5,335.0,412.5,333.5,408.5,332.5,405.0,331.5,401.0,329.5,396.5,328.5,392.0,329.5,388.0,329.0,384.5,329.0,380.0,328.5,376.0,329.0,372.0,328.5,368.0,328.5,364.5,328.5,361.0,328.5,357.0,328.5,353.0,328.0,349.0,328.5,345.0,329.0,340.5,326.0,339.0,322.0,339.5,318.0,340.0,314.0,340.5,309.5,340.5,305.5,341.0,302.0,341.5,298.0,342.5,293.5,343.0,289.5,342.0,286.0,342.0,282.0,341.5,278.5,342.0,274.5,342.5,271.0,342.5,267.0,343.0,263.0,343.5,259.0,342.5,255.0,341.0,251.0,339.0,247.0,333.0,243.0,326.5,238.5,319.5,234.0,313.0,230.0,305.5,226.0,297.5,222.0,288.5" stroke="black" stroke-width="2" fill="none" />
<polyline points="268.0,280.0,272.0,288.5,276.0,296.0,280.0,301.5,284.0,303.0,288.0,304.5" stroke="black" stroke-width="2" fill="none" />
<polyline points="280.5,311.0,284.5,319.0" stroke="black" stroke-width="2" fill="none" />
<polyline points="284.0,322.5,280.0,325.5,276.5,330.5" stroke="black" stroke-width="2" fill="none" />
<polyline points="275.0,330.5,278.5,337.5" stroke="black" stroke-width="2" fill="none" />
<polyline points="292.0,335.0,288.0,336.0,284.0,338.0,280.0,340.0,277.0,336.5,275.0,333.0,276.5,329.0,281.5,325.0,284.0,321.0,282.0,317.0,279.5,312.5" stroke="black" stroke-width="2" fill="none" />
<polyline points="304.0,332.0,308.0,332.0,312.5,332.5,316.5,333.0,320.5,333.0,324.5,332.5" stroke="black" stroke-width="2" fill="none" />
<polyline points="325.0,329.5,321.0,329.0,317.0,326.5,313.0,324.5" stroke="black" stroke-width="2" fill="none" />
<polyline points="318.5,317.5,314.5,312.0,310.5,304.5" stroke="black" stroke-width="2" fill="none" />
<polyline points="312.0,306.0,314.0,310.0,316.0,314.0,319.5,317.5,319.5,321.0,317.0,324.5,320.0,329.0,326.5,331.0" stroke="black" stroke-width="2" fill="none" />
<polyline points="342.5,343.0,343.0,347.0,343.0,350.5,343.5,354.5,343.5,358.0,343.0,362.0,343.5,366.0,343.5,370.5,343.5,374.5,344.0,378.5,344.5,383.0,344.0,387.0,344.0,391.0,344.0,394.5,344.0,398.5,343.5,402.0,344.5,406.0,344.5,410.5,344.5,415.0,344.5,419.0" stroke="black" stroke-width="2" fill="none" />
<polyline points="332.0,396.0,330.0,392.5" stroke="black" stroke-width="2" fill="none" />
<polyline points="409.0,422.0,413.0,422.0,416.5,421.5,420.5,421.0" stroke="black" stroke-width="2" fill="none" />
<polyline points="288.0,304.5,280.0,300.5,277.5,296.5,275.5,293.0,274.0,289.5,272.0,285.5,270.0,282.0,268.0,278.5,267.0,274.5" stroke="black" stroke-width="2" fill="none" />
<polyline points="250.0,211.5,258.5,208.5,261.5,207.0,257.5,209.0,253.5,210.0,249.5,211.0,246.0,212.0,242.0,212.5" stroke="black" stroke-width="2" fill="none" />
<polyline points="239.0,213.0,235.0,215.0,230.5,214.5,226.5,213.5,223.0,214.0" stroke="black" stroke-width="2" fill="none" />
<polyline points="207.0,235.5,210.0,239.5,211.5,243.0,214.0,246.5,216.0,250.0,216.5,253.5,217.0,257.5,217.5,261.0,218.0,265.0,217.5,269.0,217.0,272.5,218.0,277.0,219.5,281.0,220.5,285.5,221.5,289.5,223.0,293.5,225.0,298.0,227.0,302.5,229.5,306.5,232.0,310.5,234.0,315.0,236.5,319.0,239.5,323.0,242.0,327.0,244.0,331.5,247.0,335.5,249.5,339.0,256.0,343.0" stroke="black" stroke-width="2" fill="none" />
<polyline points="214.0,245.0,210.0,237.0,206.0,233.5,202.0,231.0,197.5,230.5,193.5,231.0,189.0,231.0,184.5,232.0,180.5,232.0,176.5,232.5,172.5,233.0,168.5,233.0,165.0,233.5,161.0,233.0,157.0,233.5,153.0,233.5,149.0,233.5,145.0,234.5,141.5,235.0,138.0,235.0,134.0,235.5,130.5,236.5,126.5,237.5,123.0,237.5,119.0,238.0,115.0,238.0,111.0,238.5,107.5,238.5,103.0,239.0,98.5,238.5,94.5,239.0,90.5,238.5,86.0,239.0,82.0,238.5,77.5,239.0,73.5,239.5,69.5,240.0,66.0,240.5" stroke="black" stroke-width="2" fill="none" />
<polyline points="86.5,234.0,90.5,234.0,94.5,233.5,99.0,233.0,102.5,233.0,106.5,233.0,110.5,233.0,114.5,232.5,118.5,232.5,122.0,233.0,125.5,232.5,130.0,232.0,134.0,232.0,138.5,231.5,143.0,231.5,147.0,231.0,151.0,231.5,155.0,230.5,159.0,230.5,163.0,230.0,167.0,229.5" stroke="black" stroke-width="2" fill="none" />
<polyline points="183.5,220.5,179.5,221.5,175.0,222.0,171.5,221.5,167.5,222.5,163.5,222.5,159.5,223.5,155.5,224.0,151.5,224.0,147.5,224.5,143.5,224.5,139.5,224.5,135.5,224.5" stroke="black" stroke-width="2" fill="none" />
<polyline points="117.5,228.0,122.0,227.5,126.0,227.5,130.5,227.0,134.5,226.5,138.0,226.0,142.5,226.0,146.5,225.5,151.0,225.5,154.5,225.5,158.5,225.0,162.5,225.0,166.0,224.5,170.0,224.5,174.0,224.0,178.0,223.5,182.5,223.5" stroke="black" stroke-width="2" fill="none" />
<polyline points="335.0,235.5,337.0,239.5,337.0,243.0,337.0,247.0,336.5,250.5,336.5,254.0,337.0,257.5,337.0,261.5,337.5,265.0,337.5,268.5,337.5,272.0,338.0,276.5,338.5,281.0,338.5,285.0,339.0,289.5,339.0,294.0,339.0,298.0,339.0,302.5,338.5,306.5,338.5,310.5,339.0,314.5,339.0,318.5,339.0,322.5,339.0,326.5,340.0,330.5,340.5,334.5,340.5,338.5,340.5,342.5,341.5,346.5,341.5,350.5,341.5,354.5,341.5,358.5,341.0,362.5,341.5,366.0,340.5,370.0,341.0,374.0,340.5,378.0,341.0,382.0,341.0,386.5,341.0,391.0,341.5,395.0,341.0,399.0,341.0,403.0,341.0,406.5,341.5,410.0,341.5,413.5,342.0,417.0" stroke="black" stroke-width="2" fill="none" />
<polyline points="278.0,14.5,282.5,13.0,286.5,11.0,290.5,10.5,295.0,10.0,299.5,9.5,303.5,8.5,307.5,8.5,312.0,8.0,316.0,7.0,320.0,6.5,324.5,6.5" stroke="black" stroke-width="2" fill="none" />
<polyline points="84.5,39.0,80.5,41.5,77.0,41.5,73.0,43.0,69.0,44.0,65.0,46.0,61.0,47.0,56.5,47.5,53.0,49.5,49.0,50.0,45.5,51.5,41.0,53.0,37.0,53.5,33.0,55.0,28.5,56.5,24.5,57.0,20.5,58.0,16.5,60.0,12.5,60.0,8.0,61.5,11.5,59.5" stroke="black" stroke-width="2" fill="none" />
</svg>