<svg xmlns="http://www.w3.org/2000/svg" version="1.1" viewBox="0 0 420 420 " ><polyline points="60.0,20.0,57.0,21.5,61.0,20.0,65.0,18.0,69.0,17.0,73.0,15.5,77.0,14.5,81.5,13.0,85.5,11.0,90.0,9.5,94.0,9.0,98.5,7.0,102.0,6.5,106.0,5.0,110.0,4.5,114.0,3.0,117.5,2.5" stroke="black" stroke-width="2" fill="none" />
<polyline points="74.5,68.5,78.5,68.0,82.5,68.0,87.0,69.5,91.0,70.0,95.5,70.0,99.5,70.0,103.5,71.0,107.5,72.5,111.0,73.0,114.5,73.5,118.5,73.5,123.0,75.5,127.0,75.5,133.0,76.5,137.0,77.0,141.0,78.0,145.0,79.0,149.5,80.0,153.5,80.5,157.5,81.5,162.5,82.0,166.5,83.0,170.0,84.0" stroke="black" stroke-width="2" fill="none" />
<polyline points="179.0,84.5,183.0,86.0" stroke="black" stroke-width="2" fill="none" />
<polyline points="204.5,86.5,208.5,84.5,212.5,84.0,216.5,83.5,221.0,83.0,225.5,82.5,230.0,81.0,234.0,80.5,238.5,80.5,243.0,80.0,247.0,78.0,251.0,77.5,255.0,77.0,259.0,77.0,262.5,76.5,266.5,76.5,270.0,75.5,273.5,74.5,277.5,74.0,281.0,73.5,285.0,73.5,289.0,72.5,293.0,73.0,297.5,72.5,301.5,71.5,305.5,70.5,310.0,70.5,314.5,69.5,318.5,69.0,322.5,68.5,326.5,68.5,330.5,67.5,334.0,67.0,337.5,66.5,341.0,66.0,344.0,65.0,348.0,65.0,352.0,64.5,355.5,64.0,359.5,64.0,363.0,62.5,367.5,62.0,372.0,62.0,376.5,60.5,380.0,60.5,384.5,59.5,388.0,59.5,392.0,59.5,396.0,59.0,400.0,59.0,404.0,59.0,408.0,58.5,411.5,58.0,415.5,57.5,420.0,57.0" stroke="black" stroke-width="2" fill="none" />
<polyline points="363.5,83.0,359.5,79.0,355.5,78.5,351.0,78.5,347.5,78.5,343.5,79.0,339.5,78.5,335.5,78.5,331.5,79.0,327.5,78.5,323.5,82.0" stroke="black" stroke-width="2" fill="none" />
<polyline points="327.0,78.5,323.0,82.5,322.0,86.5,321.5,90.5,322.0,95.5,325.5,96.0,323.5,98.5" stroke="black" stroke-width="2" fill="none" />
<polyline points="323.5,95.5,325.5,91.0,326.0,87.0,327.5,83.0,330.5,81.5,326.5,86.5" stroke="black" stroke-width="2" fill="none" />
<polyline points="357.0,78.5,361.5,82.5" stroke="black" stroke-width="2" fill="none" />
<polyline points="413.0,172.0,417.0,171.5,421.0,173.0" stroke="black" stroke-width="2" fill="none" />
<polyline points="330.5,187.5,331.0,191.5,331.0,196.0,331.5,199.5,331.5,203.5,332.5,207.5,332.5,211.5,332.0,215.5" stroke="black" stroke-width="2" fill="none" />
<polyline points="333.0,217.0,334.0,212.5,334.5,209.0,334.5,205.0,334.0,200.5,333.5,196.5,333.0,192.0,333.0,188.0,328.5,188.5" stroke="black" stroke-width="2" fill="none" />
<polyline points="323.5,219.5,326.0,223.0,326.0,227.0,328.0,231.0,327.5,235.5" stroke="black" stroke-width="2" fill="none" />
<polyline points="333.0,234.0,335.0,238.0,335.5,242.5,336.0,246.5,336.0,250.5,336.0,254.5,336.5,258.5,336.5,262.0,337.0,266.0,337.0,270.5,337.0,274.5,337.5,278.5,337.5,282.5,338.0,286.0,339.0,290.0,339.5,293.5,340.5,297.5,340.5,301.0,340.5,305.0,341.0,309.0,341.5,313.5,341.5,317.0,341.0,321.0,341.0,325.0,341.5,329.0,341.0,333.0,341.0,337.5,341.0,341.5,341.5,345.5,341.0,350.0,341.5,354.0,341.0,358.0,341.5,361.5,341.5,365.5,341.0,369.5,341.0,373.5,341.0,378.0,340.5,382.0,340.5,386.0,340.0,390.0,339.5,394.5,339.5,398.5,340.0,402.5,340.0,406.0,340.0,410.0,339.5,414.0,340.0,417.5" stroke="black" stroke-width="2" fill="none" />
<polyline points="335.0,409.5,334.0,405.5,333.0,401.5,331.5,397.0,330.5,393.0,329.0,389.0" stroke="black" stroke-width="2" fill="none" />
<polyline points="325.5,331.0,321.0,330.5,317.0,327.5,313.0,325.0" stroke="black" stroke-width="2" fill="none" />
<polyline points="319.0,318.0,315.0,312.0,311.0,304.5" stroke="black" stroke-width="2" fill="none" />
<polyline points="310.0,305.5,312.0,309.5,314.0,313.5,318.0,317.5,318.0,321.5,316.0,325.0,319.0,330.0,326.0,332.0" stroke="black" stroke-width="2" fill="none" />
<polyline points="325.0,332.5,321.0,333.0,317.0,333.0,313.0,333.0,309.0,333.0,304.5,333.5" stroke="black" stroke-width="2" fill="none" />
<polyline points="278.0,337.0,276.0,333.0,275.5,329.0,278.5,325.0,284.5,321.0,283.5,322.0,280.0,324.5,276.0,329.0" stroke="black" stroke-width="2" fill="none" />
<polyline points="287.5,304.0,283.5,302.5,279.5,300.5,275.5,293.5,271.5,286.5,267.5,278.0" stroke="black" stroke-width="2" fill="none" />
<polyline points="266.0,274.0,266.5,278.0,268.5,282.0,270.5,286.0,273.0,290.5,275.0,294.5,277.0,298.5,280.0,302.5,288.0,306.0" stroke="black" stroke-width="2" fill="none" />
<polyline points="342.0,309.5,342.5,313.5,343.0,318.0,342.5,322.0,342.5,326.5,342.5,331.0,343.0,335.0,343.0,339.0,343.0,343.0,343.5,346.5,343.5,350.5,344.0,354.5,344.5,358.5,343.5,362.5,344.0,366.5,343.5,370.5,344.0,374.5,344.0,378.5,344.0,382.5,344.0,386.5,344.0,390.5,344.0,394.5,343.5,398.5,343.0,402.5,344.0,407.0,344.5,411.0,344.5,415.0,344.5,418.5" stroke="black" stroke-width="2" fill="none" />
<polyline points="408.0,421.5,412.0,421.5,416.0,421.0,420.5,420.5" stroke="black" stroke-width="2" fill="none" />
<polyline points="313.0,244.0,309.0,239.0,305.0,234.0,301.0,229.5,297.5,228.0,293.0,222.0" stroke="black" stroke-width="2" fill="none" />
<polyline points="292.5,205.5,291.5,209.5,291.0,213.5,291.0,217.5,292.5,221.5,294.0,225.0,297.0,228.5,302.5,231.0,306.0,234.5,308.5,238.5,312.0,243.0,314.5,247.0,316.5,251.0" stroke="black" stroke-width="2" fill="none" />
<polyline points="327.5,227.0,326.0,221.5" stroke="black" stroke-width="2" fill="none" />
<polyline points="335.0,232.0,334.0,236.0,334.0,240.5,334.0,244.5,334.0,248.5,334.0,252.5,334.0,256.5,334.5,261.0,334.5,265.0,334.5,269.5,334.5,273.5,334.5,277.5,334.5,281.5,335.5,286.0,335.5,290.0,336.0,294.5,336.0,298.5,335.5,302.0,336.0,306.5,335.5,310.5,335.5,314.5,336.0,318.5,336.5,322.0,336.5,326.0,337.0,330.0,338.0,333.5,338.0,337.5,338.5,341.5,338.5,345.0,339.5,349.0,339.0,353.5,339.5,357.5,339.5,361.5,339.5,365.0,339.0,369.0,338.5,372.5,339.0,376.5,338.5,380.0,337.5,384.0,337.5,387.5,338.0,392.0,337.5,396.0,338.0,400.0,338.0,404.0,338.0,408.5,337.5,413.0,338.5,417.0,339.0,421.5" stroke="black" stroke-width="2" fill="none" />
<polyline points="337.0,421.0,335.0,417.0,334.0,412.5,332.5,408.5,331.5,404.0,330.5,400.0,329.0,396.0,328.0,392.0,328.5,388.0,328.5,384.5,328.0,380.5,328.0,377.0,328.5,373.0,328.5,369.0,329.0,364.5,329.5,360.5,329.5,356.5,329.0,352.5,329.0,348.5,329.5,344.5,329.0,340.5,326.5,339.0,322.5,339.5,318.5,340.0,314.5,340.5,310.5,341.5,306.5,342.0,302.5,342.5,298.5,343.5,294.0,343.0,290.0,342.0,286.0,341.0,282.0,340.5,278.5,341.0,274.5,342.0,270.5,343.0,266.5,343.5,262.5,344.0,258.5,343.5,254.5,342.0,250.5,340.0,246.5,334.0,242.5,327.0,238.5,320.5,234.5,314.5,230.5,307.0,226.5,300.0,222.5,290.5" stroke="black" stroke-width="2" fill="none" />
<polyline points="215.0,247.5,211.0,240.5,207.5,234.0,203.5,232.0,199.5,231.5,195.5,231.5,191.5,232.0,187.5,232.0,183.5,232.5,179.5,233.0,175.0,233.0,171.0,233.5,167.0,233.5,163.0,233.5,159.0,234.0,155.5,234.5,151.5,235.0,148.0,235.0,144.0,236.0,140.0,236.5,136.5,235.5,132.0,236.0,128.0,235.5,124.0,236.0,120.0,236.0,115.5,236.0,111.5,236.0,108.0,236.5,104.0,237.0,100.0,237.0,96.0,237.0,92.0,237.5,87.5,238.5,83.5,239.0,79.5,239.0,75.5,239.5,71.5,239.0,67.5,240.0,63.0,240.5" stroke="black" stroke-width="2" fill="none" />
<polyline points="87.5,235.0,92.0,235.0,96.0,234.5,100.0,234.5,104.0,234.0,107.5,234.5,112.0,234.0,116.0,234.0,120.5,233.5,124.5,233.5,128.5,233.0,132.5,232.5,136.5,232.0,140.0,231.5,143.5,230.5,147.5,230.5,151.5,231.0,155.5,230.5,159.0,230.5,163.0,230.0,167.0,229.5" stroke="black" stroke-width="2" fill="none" />
<polyline points="179.5,221.5,176.0,222.0,172.0,222.5,167.5,222.5,163.5,222.5,159.5,223.0,156.0,223.5,152.5,223.0,148.5,223.5,144.5,223.5,140.5,224.0,136.0,224.0" stroke="black" stroke-width="2" fill="none" />
<polyline points="122.5,227.5,126.5,227.5,130.5,227.0,134.0,227.5,138.0,227.0,142.0,227.5,146.0,226.5,149.5,226.0,153.5,225.5,157.0,225.5,160.5,225.5,164.5,225.0,169.0,224.5,173.0,224.0,177.0,223.5,181.5,223.5,185.5,223.0" stroke="black" stroke-width="2" fill="none" />
<polyline points="207.5,234.0,210.5,238.5,212.0,242.5,214.5,246.0,215.5,250.0,216.0,254.0,216.5,258.5,216.5,262.5,217.0,266.5,217.5,270.0,217.5,274.0,218.5,278.0,219.5,282.0,220.5,286.5,221.5,290.5,223.0,294.5,225.0,298.5,227.5,303.0,230.0,307.0,232.5,310.5,234.5,314.0,236.5,318.5,239.0,322.5,241.5,326.5,243.5,330.5,246.0,334.5,248.5,338.5,255.5,342.0" stroke="black" stroke-width="2" fill="none" />
<polyline points="230.0,216.0,233.5,215.5,238.0,215.0,244.0,213.0,248.0,213.0,251.5,211.5,255.5,210.0,259.5,209.5,263.5,207.0" stroke="black" stroke-width="2" fill="none" />
<polyline points="264.0,205.0,255.5,209.0" stroke="black" stroke-width="2" fill="none" />
<polyline points="88.5,130.0,84.5,129.5" stroke="black" stroke-width="2" fill="none" />
<polyline points="85.5,128.0,81.5,127.0" stroke="black" stroke-width="2" fill="none" />
<polyline points="80.5,125.0,84.5,124.0" stroke="black" stroke-width="2" fill="none" />
<polyline points="98.0,93.5,92.5,98.0,87.5,102.0,82.5,106.0,82.5,110.0,84.5,107.0,89.0,103.0,93.0,99.5,97.5,97.0,101.5,94.5,105.5,92.5" stroke="black" stroke-width="2" fill="none" />
<polyline points="83.0,88.0,80.0,87.0,76.0,86.5,72.5,85.0,68.0,84.5,64.0,84.0,60.0,83.0,56.0,82.5,52.0,82.0,48.0,82.0,44.0,81.5,39.5,80.5,35.5,80.5,31.5,80.5,27.5,80.5" stroke="black" stroke-width="2" fill="none" />
<polyline points="27.0,82.5,31.0,84.0,35.0,85.5,39.0,86.5" stroke="black" stroke-width="2" fill="none" />
<polyline points="27.5,56.5,23.5,58.0,19.5,59.5,15.5,60.5,11.5,61.0,7.5,62.5" stroke="black" stroke-width="2" fill="none" />
<polyline points="30.0,28.5,21.5,31.5,14.5,35.5,8.5,39.5,5.5,43.5,2.0,47.0,3.0,46.5,7.5,42.0,11.5,39.0,15.5,36.0,19.0,33.5,23.5,31.5,27.5,29.5,31.5,28.0,35.5,27.0,39.5,26.0,43.5,25.0,47.0,24.0,51.0,22.0,55.0,21.5" stroke="black" stroke-width="2" fill="none" />
<polyline points="279.0,14.0,283.0,12.5,287.0,11.0,291.5,10.5,295.5,9.0,299.5,8.5,303.0,7.5,307.0,8.0,311.0,7.0,315.0,6.0" stroke="black" stroke-width="2" fill="none" />
</svg>